<svg xmlns="http://www.w3.org/2000/svg" version="1.1" xmlns:xlink="http://www.w3.org/1999/xlink" xmlns:svgjs="http://svgjs.dev/svgjs" width="1500" height="1500" viewBox="0 0 1500 1500"><rect width="1500" height="1500" fill="#000000"></rect><g transform="matrix(0.6666666666666666,0,0,0.6666666666666666,250.88393442622947,244.40971659919023)"><svg viewBox="0 0 244 247" data-background-color="#636365" preserveAspectRatio="xMidYMid meet" height="1518" width="1500" xmlns="http://www.w3.org/2000/svg" xmlns:xlink="http://www.w3.org/1999/xlink"><g id="tight-bounds" transform="matrix(1,0,0,1,-0.21567999999999188,-0.09999999999999432)"><svg viewBox="0 0 244.43135999999998 247.2" height="247.2" width="244.43135999999998"><g><svg></svg></g><g><svg viewBox="0 0 244.43135999999998 247.2" height="247.2" width="244.43135999999998"><g transform="matrix(1,0,0,1,0,60.58940091017965)"><svg viewBox="0 0 244.43135999999998 126.02119817964069" height="126.02119817964069" width="244.43135999999998"><g><svg viewBox="0 0 244.43135999999998 126.02119817964069" height="126.02119817964069" width="244.43135999999998"><g><svg viewBox="0 0 244.43135999999998 126.02119817964069" height="126.02119817964069" width="244.43135999999998"><g><svg viewBox="0 0 244.43135999999998 126.02119817964069" height="126.02119817964069" width="244.43135999999998"><g id="textblocktransform"><svg viewBox="0 0 244.43135999999998 126.02119817964069" height="126.02119817964069" width="244.43135999999998" id="textblock"><g><svg viewBox="0 0 244.43135999999998 126.02119817964069" height="126.02119817964069" width="244.43135999999998"><g transform="matrix(1,0,0,1,0,0)"><svg width="244.43135999999998" viewBox="-2.7 -34.5 83.5 43.05" height="126.02119817964069" data-palette-color="#ffffff"><path d="M6.7 1Q6.7 4.15 5.73 6.05 4.75 7.95 3.15 7.95L3.15 7.95Q1.45 7.95 1.45 6.2L1.45 6.2 1.5 4.75Q1.5 3.7 0.95 3.1 0.4 2.5-0.6 2.5L-0.6 2.5Q-1.55 2.5-2.13 3.1-2.7 3.7-2.7 4.7L-2.7 4.7Q-2.7 6.35-1.15 7.45 0.4 8.55 2.75 8.55L2.75 8.55Q4.6 8.55 6.25 7.73 7.9 6.9 8.9 5.45L8.9 5.45Q9.8 4.15 10.18 2.27 10.55 0.4 10.55-2.85L10.55-2.85 10.55-33.7 14.65-34.1 14.65-34.5 2.6-34.5 2.6-34.1 6.7-33.7 6.7 1ZM51.05-34.1L46.95-33.7 46.95-0.8 51.05-0.4 51.05 0 38.75 0 38.75-0.4 43.1-0.8 43.1-17.75 26.45-17.75 26.45-0.8 30.8-0.4 30.8 0 18.5 0 18.5-0.4 22.6-0.8 22.6-33.7 18.5-34.1 18.5-34.5 30.8-34.5 30.8-34.1 26.45-33.7 26.45-18.55 43.1-18.55 43.1-33.7 38.75-34.1 38.75-34.5 51.05-34.5 51.05-34.1ZM59.15-33.7L59.15-0.8 55.05-0.4 55.05 0 79.55 0 80.8-10.9 80.2-11 76.8-2.45Q76.34-1.35 75.8-0.98 75.25-0.6 74.05-0.6L74.05-0.6 63-0.6 63-33.7 67.34-34.1 67.34-34.5 55.05-34.5 55.05-34.1 59.15-33.7Z" opacity="1" transform="matrix(1,0,0,1,0,0)" fill="#ffffff" class="wordmark-text-0" data-fill-palette-color="primary" id="text-0"></path></svg></g></svg></g></svg></g></svg></g><g></g></svg></g></svg></g></svg></g><path d="M0 54.589L0 1 244.431 1 244.431 54.589 233.067 54.589 233.067 12.365 11.365 12.365 11.365 54.589 0 54.589M0 192.611L0 246.2 244.431 246.2 244.431 192.611 233.067 192.611 233.067 234.835 11.365 234.835 11.365 192.611 0 192.611" fill="#ffffff" stroke="transparent" data-fill-palette-color="primary"></path></svg></g><defs></defs></svg><rect width="244.43135999999998" height="247.2" fill="none" stroke="none" visibility="hidden"></rect></g></svg></g></svg>